<svg version="1.1" id="Layer_1" xmlns="http://www.w3.org/2000/svg" xmlns:xlink="http://www.w3.org/1999/xlink" x="0px" y="0px"
	 width="100%" viewBox="0 0 334 312" enable-background="new 0 0 334 312" xml:space="preserve">
<path fill="#DC3021" opacity="1.000000" stroke="none" 
	d="
M137.000000,1.000000 
	C147.020889,1.000000 157.041794,1.000000 167.715469,1.362109 
	C255.566620,11.984619 314.975067,87.578842 304.127625,174.471039 
	C295.254974,245.544006 234.759644,301.933167 162.830643,306.177399 
	C88.252960,310.577911 23.100321,263.057587 4.564642,190.746506 
	C3.389243,186.161057 2.188794,181.582016 1.000000,177.000000 
	C1.000000,161.645767 1.000000,146.291550 1.358314,130.311401 
	C2.091671,128.068039 2.470403,126.451416 2.841233,124.832977 
	C17.353050,61.497723 56.047092,21.525234 118.834015,4.911314 
	C124.815521,3.328562 130.941238,2.290782 137.000000,1.000000 
M183.992142,115.486244 
	C177.735550,100.451233 171.360779,85.463684 165.290558,70.353806 
	C163.334747,65.485504 160.381989,62.377712 155.052628,62.439579 
	C149.757080,62.501064 146.845703,65.666756 144.849487,70.481567 
	C124.230118,120.214607 103.474007,169.890961 82.755539,219.582916 
	C81.503052,222.586945 80.247154,225.589584 78.883789,228.854004 
	C86.829445,228.854004 94.138237,228.854004 101.631683,228.854004 
	C110.394257,207.013550 119.132195,185.234497 128.001022,163.129181 
	C129.563812,164.349243 130.485977,165.047226 131.384781,165.774109 
	C155.852783,185.562088 180.296936,205.379684 204.818039,225.101608 
	C207.233276,227.044159 209.934143,229.001083 212.828369,229.889343 
	C216.866211,231.128601 220.715027,229.913361 223.587204,226.466461 
	C227.042770,222.319473 226.519409,217.899841 224.620850,213.335464 
	C211.155533,180.963287 197.699738,148.587143 183.992142,115.486244 
z"/>
<path fill="#FFFEFE" opacity="1.000000" stroke="none" 
	d="
M1.000000,177.468658 
	C2.188794,181.582016 3.389243,186.161057 4.564642,190.746506 
	C23.100321,263.057587 88.252960,310.577911 162.830643,306.177399 
	C234.759644,301.933167 295.254974,245.544006 304.127625,174.471039 
	C314.975067,87.578842 255.566620,11.984619 168.184128,1.362109 
	C223.640976,1.000000 279.281952,1.000000 334.961487,1.000000 
	C334.961487,104.926315 334.961487,208.852661 334.961487,312.889496 
	C223.666718,312.889496 112.333382,312.889496 1.000018,312.882416 
	C1.000000,267.895996 1.000000,222.916656 1.000000,177.468658 
z"/>
<path fill="#FFFEFE" opacity="1.000000" stroke="none" 
	d="
M136.531342,1.000000 
	C130.941238,2.290782 124.815521,3.328562 118.834015,4.911314 
	C56.047092,21.525234 17.353050,61.497723 2.841233,124.832977 
	C2.470403,126.451416 2.091671,128.068039 1.358314,129.842743 
	C1.000000,87.071083 1.000000,44.142170 1.000000,1.000000 
	C46.020668,1.000000 91.041679,1.000000 136.531342,1.000000 
z"/>
<path fill="#FFFDFC" opacity="1.000000" stroke="none" 
	d="
M184.116516,115.849251 
	C197.699738,148.587143 211.155533,180.963287 224.620850,213.335464 
	C226.519409,217.899841 227.042770,222.319473 223.587204,226.466461 
	C220.715027,229.913361 216.866211,231.128601 212.828369,229.889343 
	C209.934143,229.001083 207.233276,227.044159 204.818039,225.101608 
	C180.296936,205.379684 155.852783,185.562088 131.384781,165.774109 
	C130.485977,165.047226 129.563812,164.349243 128.001022,163.129181 
	C119.132195,185.234497 110.394257,207.013550 101.631683,228.854004 
	C94.138237,228.854004 86.829445,228.854004 78.883789,228.854004 
	C80.247154,225.589584 81.503052,222.586945 82.755539,219.582916 
	C103.474007,169.890961 124.230118,120.214607 144.849487,70.481567 
	C146.845703,65.666756 149.757080,62.501064 155.052628,62.439579 
	C160.381989,62.377712 163.334747,65.485504 165.290558,70.353806 
	C171.360779,85.463684 177.735550,100.451233 184.116516,115.849251 
M171.960510,174.538513 
	C178.682205,179.829941 185.403900,185.121353 192.125610,190.412766 
	C192.545746,190.093079 192.965897,189.773407 193.386047,189.453720 
	C180.816284,158.355469 168.246521,127.257210 155.214966,95.016457 
	C148.199005,112.510605 141.618790,128.918228 135.008560,145.400681 
	C147.355743,155.131973 159.381332,164.609802 171.960510,174.538513 
z"/>
<path fill="#DC3223" opacity="1.000000" stroke="none" 
	d="
M171.683716,174.313080 
	C159.381332,164.609802 147.355743,155.131973 135.008560,145.400681 
	C141.618790,128.918228 148.199005,112.510605 155.214966,95.016457 
	C168.246521,127.257210 180.816284,158.355469 193.386047,189.453720 
	C192.965897,189.773407 192.545746,190.093079 192.125610,190.412766 
	C185.403900,185.121353 178.682205,179.829941 171.683716,174.313080 
z"/>
</svg>