<?xml version="1.0" encoding="UTF-8"?>
<svg xmlns="http://www.w3.org/2000/svg" xmlns:xlink="http://www.w3.org/1999/xlink" viewBox="0 0 75 92" version="1.1">
<g id="surface1">
<path style=" stroke:none;fill-rule:nonzero;fill:rgb(10.196078%,9.803922%,9.411765%);fill-opacity:1;" d="M 19.777344 91.667969 C 19.617188 91.667969 19.449219 91.628906 19.328125 91.46875 L 14.238281 84.789062 L 14.238281 91.601562 L 13.074219 91.601562 L 13.074219 83.214844 C 13.074219 82.882812 13.351562 82.613281 13.667969 82.613281 C 13.855469 82.613281 14.011719 82.667969 14.128906 82.828125 L 19.210938 89.492188 L 19.210938 82.707031 L 20.371094 82.707031 L 20.371094 91.082031 C 20.371094 91.425781 20.09375 91.667969 19.777344 91.667969 M 29.382812 91.75 C 28.222656 91.75 27.007812 91.507812 25.875 91.082031 L 26.152344 90.117188 C 27.191406 90.453125 28.328125 90.691406 29.382812 90.691406 C 30.847656 90.691406 31.613281 90.171875 31.613281 89.4375 C 31.613281 88.769531 31.019531 88.4375 28.972656 87.476562 C 26.929688 86.511719 26.125 85.898438 26.125 84.695312 C 26.125 83.1875 27.285156 82.574219 29.476562 82.574219 C 30.386719 82.574219 31.785156 82.761719 32.589844 83 L 32.40625 83.988281 C 31.519531 83.777344 30.414062 83.628906 29.5 83.628906 C 27.957031 83.628906 27.324219 83.921875 27.324219 84.65625 C 27.324219 85.378906 27.785156 85.683594 29.949219 86.6875 C 32.234375 87.742188 32.8125 88.277344 32.8125 89.371094 C 32.8125 90.960938 31.308594 91.75 29.382812 91.75 M 38.316406 82.707031 L 39.515625 82.707031 L 39.515625 91.601562 L 38.316406 91.601562 Z M 49.726562 87.570312 L 46.746094 87.570312 L 46.746094 90.585938 L 49.726562 90.585938 C 50.742188 90.585938 51.363281 89.945312 51.363281 89.050781 C 51.363281 88.210938 50.71875 87.570312 49.726562 87.570312 M 49.148438 83.722656 L 46.746094 83.722656 L 46.746094 86.566406 L 49.148438 86.566406 C 50.109375 86.566406 50.808594 85.953125 50.808594 85.097656 C 50.808594 84.257812 50.203125 83.722656 49.148438 83.722656 M 49.742188 91.601562 L 46.152344 91.601562 C 45.992188 91.605469 45.835938 91.542969 45.722656 91.429688 C 45.609375 91.316406 45.542969 91.160156 45.546875 91 L 45.546875 83.308594 C 45.546875 82.988281 45.808594 82.707031 46.152344 82.707031 L 49.121094 82.707031 C 50.941406 82.707031 52.023438 83.601562 52.023438 85.003906 C 52.023438 85.765625 51.574219 86.472656 50.886719 86.886719 C 51.90625 87.195312 52.589844 88.035156 52.589844 89.050781 C 52.589844 90.464844 51.417969 91.601562 49.742188 91.601562 M 58.355469 91.601562 C 58.027344 91.601562 57.761719 91.320312 57.761719 91 L 57.761719 82.707031 L 58.960938 82.707031 L 58.960938 90.519531 L 63.738281 90.519531 L 63.738281 91.601562 Z M 71.921875 91.75 C 69.46875 91.75 67.992188 90.839844 67.992188 89.011719 C 67.992188 88.144531 68.480469 87.316406 69.429688 86.925781 C 68.664062 86.445312 68.269531 85.765625 68.269531 85.019531 C 68.269531 83.363281 69.546875 82.574219 71.949219 82.574219 C 72.753906 82.574219 73.886719 82.667969 74.839844 82.882812 L 74.707031 83.871094 C 73.703125 83.707031 72.765625 83.617188 71.855469 83.617188 C 70.300781 83.617188 69.46875 84.042969 69.46875 85.070312 C 69.46875 85.886719 70.234375 86.527344 71.25 86.527344 L 73.308594 86.527344 C 73.597656 86.527344 73.824219 86.753906 73.824219 87.035156 C 73.824219 87.328125 73.597656 87.554688 73.308594 87.554688 L 71.089844 87.554688 C 69.929688 87.554688 69.191406 88.128906 69.191406 89.011719 C 69.191406 90.304688 70.390625 90.691406 71.894531 90.691406 C 72.714844 90.691406 73.824219 90.585938 74.71875 90.371094 L 74.890625 91.347656 C 74.035156 91.589844 72.910156 91.75 71.921875 91.75 M 4.140625 84.375 L 6.246094 89.628906 L 3.070312 87.097656 Z M 7.875 90.839844 L 4.644531 82.960938 C 4.550781 82.734375 4.367188 82.613281 4.140625 82.613281 C 3.914062 82.609375 3.707031 82.746094 3.628906 82.960938 L 0.078125 91.601562 L 1.292969 91.601562 L 2.695312 88.039062 L 6.890625 91.46875 C 7.058594 91.605469 7.179688 91.667969 7.339844 91.667969 C 7.65625 91.667969 7.933594 91.429688 7.933594 91.082031 C 7.933594 91.023438 7.914062 90.933594 7.875 90.839844 Z M 7.875 90.839844 "/>
<path style=" stroke:none;fill-rule:nonzero;fill:rgb(10.196078%,9.803922%,9.411765%);fill-opacity:1;" d="M 74.957031 37.34375 C 74.957031 57.921875 58.226562 74.601562 37.585938 74.601562 C 16.949219 74.601562 0.21875 57.921875 0.21875 37.34375 C 0.21875 16.769531 16.949219 0.0898438 37.585938 0.0898438 C 58.226562 0.0898438 74.957031 16.769531 74.957031 37.34375 "/>
<path style=" stroke:none;fill-rule:nonzero;fill:rgb(100%,100%,100%);fill-opacity:1;" d="M 38.214844 22.847656 L 47.886719 46.644531 L 33.28125 35.171875 Z M 55.394531 52.125 L 40.519531 16.433594 C 40.09375 15.40625 39.246094 14.859375 38.214844 14.859375 C 37.183594 14.859375 36.273438 15.40625 35.847656 16.433594 L 19.523438 55.582031 L 25.105469 55.582031 L 31.570312 39.441406 L 50.855469 54.976562 C 51.632812 55.601562 52.191406 55.886719 52.917969 55.886719 C 54.375 55.886719 55.648438 54.796875 55.648438 53.222656 C 55.648438 52.96875 55.558594 52.5625 55.394531 52.125 Z M 55.394531 52.125 "/>
</g>
</svg>
